<?xml version='1.0' encoding='iso-8859-1'?>
<svg version="1.1" xmlns="http://www.w3.org/2000/svg" viewBox="0 0 295.82 295.82" xmlns:xlink="http://www.w3.org/1999/xlink" enable-background="new 0 0 295.82 295.82">
  <g>
    <g>
      <path d="M226.216,0H69.605C45.243,0,26.102,19.141,26.102,43.503v208.814c0,24.362,19.141,43.503,43.503,43.503h156.611    c24.362,0,43.503-19.141,43.503-43.503V43.503C269.719,19.141,250.577,0,226.216,0z M252.317,252.317    c0,13.921-12.181,26.102-26.102,26.102H69.605c-13.921,0-26.102-12.181-26.102-26.102V43.503    c0-13.921,12.181-26.102,26.102-26.102h156.611c13.921,0,26.102,12.181,26.102,26.102V252.317z"/>
      <path d="m200.114,69.605h-104.407c-5.22,0-8.701,3.48-8.701,8.701 0,5.22 3.48,8.701 8.701,8.701h104.407c5.22,0 8.701-3.48 8.701-8.701-0.001-5.221-3.481-8.701-8.701-8.701z"/>
      <path d="m200.114,139.21h-104.407c-5.22,0-8.701,3.48-8.701,8.701 0,5.22 3.48,8.701 8.701,8.701h104.407c5.22,0 8.701-3.48 8.701-8.701-0.001-5.221-3.481-8.701-8.701-8.701z"/>
      <path d="m200.114,208.814h-104.407c-5.22,0-8.701,3.48-8.701,8.701 0,5.22 3.48,8.701 8.701,8.701h104.407c5.22,0 8.701-3.48 8.701-8.701-0.001-5.22-3.481-8.701-8.701-8.701z"/>
    </g>
  </g>
</svg>
